<mxfile host="app.diagrams.net" modified="2023-08-23T09:48:39.130Z" agent="Mozilla/5.0 (Windows NT 10.0; Win64; x64) AppleWebKit/537.36 (KHTML, like Gecko) Chrome/115.0.0.0 Safari/537.36" version="21.6.8" etag="_amdxLpV8JGwB8d0XT5E" type="github">
  <diagram name="第 1 页" id="hKjsUNpYbOX7yVgXXxMw">
    <mxGraphModel>
      <root>
        <mxCell id="0" />
        <mxCell id="1" parent="0" />
      </root>
    </mxGraphModel>
  </diagram>
</mxfile>
